PathFileType	4	(X/Y/Z)	c:/Users/goper/Files/vsCode/490R/osim_files/A03/A03_Slow_02.trc
DataRate	CameraRate	NumFrames	NumMarkers	Units                	OrigDataRate	OrigDataStartFrame	OrigNumFrames
250.00	250.00	4	36	mm	250.0	2601	2972
                Frame#	Time	LPSIS			LASIS			LTH1			LTH2			LTH3			LTH4			LLFE			LMFE			LSH1			LSH2			LSH3			LSH4			LLMAL			LMMAL			LCAL			LMTP5			LTOE			LMTP1			RPSIS			RASIS			RTH1			RTH2			RTH3			RTH4			RLFE			RMFE			RSH1			RSH2			RSH3			RSH4			RLMAL			RMMAL			RCAL			RMTP1			RTOE			RMTP5		
		X1	Y1	Z1	X2	Y2	Z2	X3	Y3	Z3	X4	Y4	Z4	X5	Y5	Z5	X6	Y6	Z6	X7	Y7	Z7	X8	Y8	Z8	X9	Y9	Z9	X10	Y10	Z10	X11	Y11	Z11	X12	Y12	Z12	X13	Y13	Z13	X14	Y14	Z14	X15	Y15	Z15	X16	Y16	Z16	X17	Y17	Z17	X18	Y18	Z18	X19	Y19	Z19	X20	Y20	Z20	X21	Y21	Z21	X22	Y22	Z22	X23	Y23	Z23	X24	Y24	Z24	X25	Y25	Z25	X26	Y26	Z26	X27	Y27	Z27	X28	Y28	Z28	X29	Y29	Z29	X30	Y30	Z30	X31	Y31	Z31	X32	Y32	Z32	X33	Y33	Z33	X34	Y34	Z34	X35	Y35	Z35	X36	Y36	Z36

2601	10.40000	-3686.35547	1049.13293	241.79651	0.00000	0.00000	0.00000	-3975.31299	633.26843	413.63498	-3999.37329	597.54291	412.17752	-4030.15332	659.01178	391.72943	-4043.79712	617.60553	391.22784	-3998.34644	555.63165	402.97330	-4011.71118	547.52112	247.74568	0.00000	0.00000	0.00000	-3988.23364	413.59012	402.37299	0.00000	0.00000	0.00000	-3973.63184	460.45712	402.47824	-4065.74634	100.35248	378.74237	0.00000	0.00000	0.00000	0.00000	0.00000	0.00000	-4166.06543	23.64624	272.33447	0.00000	0.00000	0.00000	-4177.46094	21.55300	390.43591	0.00000	0.00000	0.00000	-4200.73389	767.43042	171.37112	0.00000	0.00000	0.00000	-3760.53662	562.97980	10.55558	-3827.92847	591.21112	8.33488	-3812.77856	548.74530	12.45901	0.00000	0.00000	0.00000	0.00000	0.00000	0.00000	-3695.12451	492.80457	23.97305	0.00000	0.00000	0.00000	0.00000	0.00000	0.00000	-3703.32910	422.39697	9.65352	-3506.31836	185.08656	54.91884	0.00000	0.00000	0.00000	-3436.38647	165.87668	111.06664	-3609.14014	53.74911	159.32063	0.00000	0.00000	0.00000	-3601.03394	49.48918	41.89627
2602	10.40400	-3690.64673	1049.89075	242.34857	0.00000	0.00000	0.00000	-3978.55957	633.80304	414.96655	-4002.58691	598.09698	413.61121	-4033.48901	659.38147	393.09027	-4047.04272	617.93915	392.69424	-4001.54468	555.87939	404.47961	-4014.96338	548.02551	249.25996	0.00000	0.00000	0.00000	-3990.63379	413.96225	403.46954	0.00000	0.00000	0.00000	-3976.23511	460.86703	403.66626	-4066.00610	100.25120	378.95419	0.00000	0.00000	0.00000	0.00000	0.00000	0.00000	-4166.59570	23.70906	272.38409	0.00000	0.00000	0.00000	-4178.03369	21.53988	390.68295	0.00000	0.00000	0.00000	-4205.72900	767.88947	170.80534	0.00000	0.00000	0.00000	-3767.65845	563.45587	9.84128	-3834.86792	591.89520	7.85774	-3819.88940	549.39148	11.80905	0.00000	0.00000	0.00000	0.00000	0.00000	0.00000	-3702.33032	493.86597	22.96930	0.00000	0.00000	0.00000	0.00000	0.00000	0.00000	-3710.03223	423.18903	8.81702	-3513.04395	188.03212	51.08004	0.00000	0.00000	0.00000	-3440.51294	170.81664	109.88018	-3609.95654	54.11224	159.06902	0.00000	0.00000	0.00000	-3601.82178	49.53997	41.70104
2603	10.40800	0.00000	0.00000	0.00000	0.00000	0.00000	0.00000	-3981.69751	634.30853	416.25964	-4005.60840	598.51978	415.05038	-4036.76709	659.72894	394.52283	-4050.19458	618.23529	394.22867	-4004.65796	556.10089	405.95776	-4018.18213	548.51550	250.75575	0.00000	0.00000	0.00000	-3992.85718	414.18411	404.54221	0.00000	0.00000	0.00000	-3978.85840	461.30170	404.84406	-4066.04224	100.09953	379.07877	0.00000	0.00000	0.00000	0.00000	0.00000	0.00000	-4166.88477	23.73824	272.51932	0.00000	0.00000	0.00000	-4178.48340	21.55908	390.85898	0.00000	0.00000	0.00000	-4210.58984	768.22119	170.30023	0.00000	0.00000	0.00000	-3774.81348	563.89606	9.32249	-3841.94067	592.59711	7.41917	-3827.17676	550.04456	11.25596	0.00000	0.00000	0.00000	0.00000	0.00000	0.00000	-3709.86401	495.08823	21.91997	0.00000	0.00000	0.00000	0.00000	0.00000	0.00000	-3717.02124	423.99390	8.02158	-3517.87622	190.83086	49.82213	0.00000	0.00000	0.00000	-3445.36987	176.36263	109.36205	-3610.78442	54.54800	158.79475	0.00000	0.00000	0.00000	-3602.59888	49.54472	41.48238
2604	10.41200	-3699.08154	1051.42627	243.61951	0.00000	0.00000	0.00000	-3984.76245	634.83850	417.56235	-4008.51025	598.92230	416.47943	-4040.00146	660.08380	396.04236	-4053.29102	618.53296	395.87842	-4007.76880	556.30841	407.40765	-4021.29126	548.97314	252.22484	0.00000	0.00000	0.00000	-3995.07422	414.43378	405.60034	0.00000	0.00000	0.00000	-3981.38159	461.67526	406.01465	-4066.00757	100.03833	379.07465	0.00000	0.00000	0.00000	0.00000	0.00000	0.00000	-4167.01807	23.77618	272.62131	0.00000	0.00000	0.00000	-4178.80371	21.59256	390.97260	0.00000	0.00000	0.00000	-4215.39648	768.45422	169.89012	0.00000	0.00000	0.00000	-3782.15259	564.31464	8.79597	-3849.15796	593.28674	7.07508	-3834.54614	550.64142	10.78496	0.00000	0.00000	0.00000	0.00000	0.00000	0.00000	-3717.20947	496.15616	21.45095	0.00000	0.00000	0.00000	0.00000	0.00000	0.00000	-3724.07471	424.71228	7.30959	-3522.90820	193.65274	48.50616	0.00000	0.00000	0.00000	-3450.36353	181.58656	108.02739	-3611.82129	55.25052	158.48434	0.00000	0.00000	0.00000	-3603.65210	49.76921	41.20838
